# File created by Blade
# Date/Time:  Thu Jan 22 18:25:17 2015
#---------------------------------------------------------
:version 1.10
:name HOM
:units
  mass 1.0
  length 1.000000
  angle deg
:documentation
     Acclaim Skeleton File
:root
   axis xyz
   order TX TY TZ RX RY RZ
   position 0.000000 0.000000 0.000000
   orientation 0 0 0
:bonedata
   begin
      id 1
      name RightUpLeg_dum
      direction -1.000000 0.000000 0.000000
      length 4.478084
      axis 0.0 0.0 0.0 xyz
   end
   begin
      id 2
      name LeftUpLeg_dum
      direction 1.000000 0.000000 0.000000
      length 4.478084
      axis 0.0 0.0 0.0 xyz
   end
   begin
      id 3
      name Spine_dum
      direction 0.000000 1.000000 0.000000
      length 6.068208
      axis 0.0 0.0 0.0 xyz
   end
   begin
      id 4
      name RightUpLeg
      direction 0.000000 -1.000000 0.000000
      length 16.405774
      axis 0.0 0.0 0.0 xyz
      dof rx ry rz
   end
   begin
      id 5
      name RightLeg
      direction 0.000000 -1.000000 0.000000
      length 14.644143
      axis 0.0 0.0 0.0 xyz
      dof rx ry rz
   end
   begin
      id 6
      name RightFoot
      direction 0.000000 -0.258819 0.965926
      length 5.806150
      axis 15.0 0.0 0.0 xyz
      dof rx ry rz
   end
   begin
      id 7
      name RightToeBase
      direction 0.000000 0.000000 1.000000
      length 2.952750
      axis 0.0 0.0 0.0 xyz
      dof rx ry rz
   end
   begin
      id 8
      name LeftUpLeg
      direction 0.000000 -1.000000 0.000000
      length 16.405774
      axis 0.0 0.0 0.0 xyz
      dof rx ry rz
   end
   begin
      id 9
      name LeftLeg
      direction 0.000000 -1.000000 0.000000
      length 14.644143
      axis 0.0 0.0 0.0 xyz
      dof rx ry rz
   end
   begin
      id 10
      name LeftFoot
      direction 0.000000 -0.258819 0.965926
      length 5.806150
      axis 15.0 0.0 0.0 xyz
      dof rx ry rz
   end
   begin
      id 11
      name LeftToeBase
      direction 0.000000 0.000000 1.000000
      length 2.952750
      axis 0.0 0.0 0.0 xyz
      dof rx ry rz
   end
   begin
      id 12
      name Spine
      direction 0.000000 1.000000 0.000000
      length 0.000000
      axis 0.0 0.0 0.0 xyz
      dof rx ry rz
   end
   begin
      id 13
      name Spine_dum1
      direction 0.000000 1.000000 0.000000
      length 10.013923
      axis 0.0 0.0 0.0 xyz
   end
   begin
      id 14
      name Spine_dum2
      direction 0.000000 1.000000 0.000000
      length 10.013923
      axis 0.0 0.0 0.0 xyz
   end
   begin
      id 15
      name Spine_dum3
      direction 0.000000 1.000000 0.000000
      length 15.777476
      axis 0.0 0.0 0.0 xyz
   end
   begin
      id 16
      name RightShoulder
      direction -1.000000 0.000000 0.000000
      length 7.190220
      axis 0.0 0.0 90.0 xyz
      dof rx ry rz
   end
   begin
      id 17
      name RightArm
      direction -1.000000 0.000000 0.000000
      length 10.177469
      axis 0.0 0.0 90.0 xyz
      dof rx ry rz
   end
   begin
      id 18
      name RightForeArm
      direction -1.000000 0.000000 0.000000
      length 8.392114
      axis 0.0 0.0 90.0 xyz
      dof ry rz rx
   end
   begin
      id 19
      name RightHand
      direction -1.000000 0.000000 0.000000
      length 0.000000
      axis 0.0 0.0 90.0 xyz
      dof rx ry rz
   end
   begin
      id 20
      name RightHand_dum1
      direction -1.000000 0.000000 0.000000
      length 3.937000
      axis 0.0 0.0 90.0 xyz
   end
   begin
      id 21
      name RightHand_dum2
      direction 0.000000 0.000000 0.000000
      length 0.000000
      axis 0.0 0.0 90.0 xyz
   end
   begin
      id 22
      name RightHandThumb1
      direction 0.000000 0.000000 1.000000
      length 3.937000
      axis 0.0 0.0 90.0 xyz
      dof rx rz ry
   end
   begin
      id 23
      name LeftShoulder
      direction 1.000000 0.000000 0.000000
      length 7.190220
      axis 0.0 0.0 -90.0 xyz
      dof rx ry rz
   end
   begin
      id 24
      name LeftArm
      direction 1.000000 0.000000 0.000000
      length 10.177469
      axis 0.0 0.0 -90.0 xyz
      dof rx ry rz
   end
   begin
      id 25
      name LeftForeArm
      direction 1.000000 0.000000 0.000000
      length 8.392114
      axis 0.0 0.0 -90.0 xyz
      dof ry rz rx
   end
   begin
      id 26
      name LeftHand
      direction 1.000000 0.000000 0.000000
      length 0.000000
      axis 0.0 0.0 -90.0 xyz
      dof rx ry rz
   end
   begin
      id 27
      name LeftHand_dum1
      direction 1.000000 0.000000 0.000000
      length 3.937000
      axis 0.0 0.0 -90.0 xyz
   end
   begin
      id 28
      name LeftHand_dum2
      direction 0.000000 0.000000 0.000000
      length 0.000000
      axis 0.0 0.0 -90.0 xyz
   end
   begin
      id 29
      name LeftHandThumb1
      direction 0.000000 0.000000 1.000000
      length 3.937000
      axis 0.0 0.0 -90.0 xyz
      dof rx rz ry
   end
   begin
      id 30
      name Head
      direction 0.000000 1.000000 0.000000
      length 4.527550
      axis 0.0 0.0 0.0 xyz
      dof rx ry rz
   end
:hierarchy
   begin
      root RightUpLeg_dum LeftUpLeg_dum Spine_dum
      RightUpLeg_dum RightUpLeg
      LeftUpLeg_dum LeftUpLeg
      Spine_dum Spine
      RightUpLeg RightLeg
      RightLeg RightFoot
      RightFoot RightToeBase
      LeftUpLeg LeftLeg
      LeftLeg LeftFoot
      LeftFoot LeftToeBase
      Spine Spine_dum1 Spine_dum2 Spine_dum3
      Spine_dum1 RightShoulder
      Spine_dum2 LeftShoulder
      Spine_dum3 Head
      RightShoulder RightArm
      RightArm RightForeArm
      RightForeArm RightHand
      RightHand RightHand_dum1 RightHand_dum2
      RightHand_dum2 RightHandThumb1
      LeftShoulder LeftArm
      LeftArm LeftForeArm
      LeftForeArm LeftHand
      LeftHand LeftHand_dum1 LeftHand_dum2
      LeftHand_dum2 LeftHandThumb1
   end

# File created by Blade
# Date/Time:  Thu Jan 22 18:25:10 2015
# Frame Rate: 120.000 fps
#------------------------------------------------------
:FULLY-SPECIFIED
:DEGREES
1222
root -2.814435 33.252125 0.379052 4.492394 -2.178918 2.791704
RightUpLeg 2.432515 -4.382414 -2.578570
RightLeg 1.602938 -0.000000 -0.000000
RightFoot -12.140937 -4.051784 3.686499
RightToeBase 5.502123 -0.000000 -0.000000
LeftUpLeg 2.557000 3.321607 0.545463
LeftLeg 2.524977 -0.000000 -0.000000
LeftFoot -10.951414 2.873841 -9.768658
LeftToeBase 8.349750 -0.000000 -0.000000
Spine -9.263251 -1.461679 -2.466881
RightShoulder -21.435128 13.383089 -59.700112
RightArm 46.593339 63.283614 42.666582
RightForeArm 75.959578 -0.000000 104.167165
RightHand 12.175728 0.000000 0.578823
RightHandThumb1 -24.326973 -0.000000 -32.862282
LeftShoulder -29.108876 -13.115412 60.728647
LeftArm 107.067337 -59.110254 -77.549426
LeftForeArm -13.508790 -0.000000 121.300884
LeftHand -12.041664 0.000000 15.550259
LeftHandThumb1 -26.253704 0.000000 33.147579
Head 30.606013 5.383540 -7.332027
1223
root -2.811337 33.254765 0.376206 4.487258 -2.158358 2.789732
RightUpLeg 2.429850 -4.413948 -2.581618
RightLeg 1.614191 -0.000000 -0.000000
RightFoot -12.121099 -4.050465 3.681979
RightToeBase 5.488531 -0.000000 -0.000000
LeftUpLeg 2.554578 3.309260 0.543440
LeftLeg 2.522567 -0.000000 -0.000000
LeftFoot -10.931836 2.871229 -9.783122
LeftToeBase 8.368087 -0.000000 -0.000000
Spine -9.240731 -1.465382 -2.489231
RightShoulder -21.360351 13.210661 -59.543518
RightArm 45.631371 63.356689 41.950033
RightForeArm 76.238245 -0.000000 104.620855
RightHand 12.114434 0.000000 -0.119439
RightHandThumb1 -24.326973 -0.000000 -32.862282
LeftShoulder -29.149302 -13.099935 60.743710
LeftArm 107.638550 -58.866408 -77.775607
LeftForeArm -14.189502 -0.000000 121.135537
LeftHand -12.040752 -0.000000 15.133798
LeftHandThumb1 -26.253704 0.000000 33.147579
Head 30.438188 5.412113 -7.659905
1224
root -2.807342 33.257205 0.373037 4.482269 -2.126988 2.792746
RightUpLeg 2.429440 -4.436229 -2.588462
RightLeg 1.623072 -0.000000 -0.000000
RightFoot -12.101468 -4.055087 3.699360
RightToeBase 5.460993 -0.000000 -0.000000
LeftUpLeg 2.553817 3.286213 0.536669
LeftLeg 2.510064 -0.000000 -0.000000
LeftFoot -10.888342 2.848550 -9.822519
LeftToeBase 8.296963 -0.000000 -0.000000
Spine -9.212716 -1.484677 -2.502276
RightShoulder -21.302600 12.968118 -59.362344
RightArm 44.965400 63.469760 41.505607
RightForeArm 76.389102 -0.000000 105.037784
RightHand 12.184471 -0.000000 -0.375236
RightHandThumb1 -24.326973 -0.000000 -32.862282
LeftShoulder -29.184155 -13.106928 60.742012
LeftArm 108.167921 -58.630232 -77.964658
LeftForeArm -14.884347 -0.000000 120.991866
LeftHand -12.063183 -0.000000 14.847572
LeftHandThumb1 -26.253704 0.000000 33.147579
Head 30.243953 5.488583 -7.995643
1225
root -2.804432 33.259816 0.370986 4.472726 -2.097672 2.795048
RightUpLeg 2.439511 -4.454177 -2.592594
RightLeg 1.623987 -0.000000 -0.000000
RightFoot -12.082951 -4.072166 3.699096
RightToeBase 5.453496 -0.000000 -0.000000
LeftUpLeg 2.557843 3.286441 0.534140
LeftLeg 2.501348 -0.000000 -0.000000
LeftFoot -10.849790 2.819007 -9.823608
LeftToeBase 8.270146 -0.000000 -0.000000
Spine -9.190901 -1.517833 -2.527506
RightShoulder -21.225785 12.708178 -59.134406
RightArm 44.330424 63.591832 41.076453
RightForeArm 76.544265 -0.000000 105.437356
RightHand 12.111274 -0.000000 -0.775848
RightHandThumb1 -24.326973 -0.000000 -32.862282
LeftShoulder -29.227700 -13.104021 60.758754
LeftArm 108.660074 -58.359017 -78.118086
LeftForeArm -15.260920 -0.000000 120.853469
LeftHand -12.125197 -0.000000 14.544627
LeftHandThumb1 -26.253704 0.000000 33.147579
Head 30.056804 5.610571 -8.282304
1226
root -2.799852 33.262460 0.366746 4.475633 -2.066624 2.794168
RightUpLeg 2.425104 -4.484708 -2.595912
RightLeg 1.638975 -0.000000 -0.000000
RightFoot -12.063790 -4.071860 3.706201
RightToeBase 5.457604 -0.000000 -0.000000
LeftUpLeg 2.546576 3.280215 0.526639
LeftLeg 2.493500 -0.000000 -0.000000
LeftFoot -10.848563 2.834742 -9.771629
LeftToeBase 8.405889 -0.000000 -0.000000
Spine -9.172685 -1.544643 -2.540003
RightShoulder -21.159528 12.510835 -58.969803
RightArm 43.586625 63.659691 40.583969
RightForeArm 76.758747 -0.000000 105.842807
RightHand 12.148611 -0.000000 -1.271752
RightHandThumb1 -24.326973 -0.000000 -32.862282
LeftShoulder -29.272000 -13.129324 60.783482
LeftArm 109.133603 -58.084781 -78.269936
LeftForeArm -15.671823 -0.000000 120.729061
LeftHand -12.111759 0.000000 14.194194
LeftHandThumb1 -26.253704 0.000000 33.147579
Head 29.866144 5.743679 -8.523516
1227
root -2.794720 33.264837 0.362975 4.478186 -2.035189 2.800718
RightUpLeg 2.419704 -4.489320 -2.608095
RightLeg 1.642039 -0.000000 -0.000000
RightFoot -12.053563 -4.090250 3.733051
RightToeBase 5.445432 -0.000000 -0.000000
LeftUpLeg 2.540564 3.284910 0.516277
LeftLeg 2.471812 -0.000000 -0.000000
LeftFoot -10.795777 2.803788 -9.730357
LeftToeBase 8.352280 -0.000000 -0.000000
Spine -9.150230 -1.573545 -2.564568
RightShoulder -21.106680 12.316919 -58.813595
RightArm 42.870976 63.708061 40.145618
RightForeArm 77.016065 -0.000000 106.269047
RightHand 12.181876 -0.000000 -1.612296
RightHandThumb1 -24.326973 -0.000000 -32.862282
LeftShoulder -29.319861 -13.132509 60.825033
LeftArm 109.609015 -57.854904 -78.429542
LeftForeArm -15.971281 -0.000000 120.648148
LeftHand -12.009415 0.000000 14.107128
LeftHandThumb1 -26.253704 0.000000 33.147579
Head 29.637388 5.888776 -8.728697
1228
root -2.790606 33.266773 0.360416 4.475448 -2.003871 2.808161
RightUpLeg 2.423670 -4.496653 -2.618900
RightLeg 1.640525 -0.000000 -0.000000
RightFoot -12.041808 -4.113411 3.742518
RightToeBase 5.457643 -0.000000 -0.000000
LeftUpLeg 2.541149 3.296484 0.506679
LeftLeg 2.452274 -0.000000 -0.000000
LeftFoot -10.762859 2.767074 -9.733589
LeftToeBase 8.373319 -0.000000 -0.000000
Spine -9.126861 -1.594800 -2.591773
RightShoulder -21.047519 12.124574 -58.688142
RightArm 42.161369 63.722653 39.742423
RightForeArm 77.328112 -0.000000 106.699852
RightHand 12.189017 -0.000000 -2.084058
RightHandThumb1 -24.326973 -0.000000 -32.862282
LeftShoulder -29.348870 -13.136983 60.855904
LeftArm 110.119876 -57.637049 -78.648603
LeftForeArm -16.072753 0.000000 120.616608
LeftHand -11.973753 0.000000 14.007893
LeftHandThumb1 -26.253704 0.000000 33.147579
Head 29.406846 6.099643 -8.872395
1229
root -2.786130 33.268417 0.356661 4.483648 -1.964179 2.809944
RightUpLeg 2.419694 -4.528378 -2.624354
RightLeg 1.631445 -0.000000 -0.000000
RightFoot -12.019620 -4.121206 3.744441
RightToeBase 5.436514 -0.000000 -0.000000
LeftUpLeg 2.525853 3.274334 0.500360
LeftLeg 2.441363 -0.000000 -0.000000
LeftFoot -10.741124 2.754584 -9.717519
LeftToeBase 8.352427 -0.000000 -0.000000
Spine -9.103171 -1.645906 -2.602159
RightShoulder -21.011693 11.936807 -58.562149
RightArm 41.546906 63.747299 39.418910
RightForeArm 77.527325 -0.000000 107.140260
RightHand 12.225008 -0.000000 -2.633341
RightHandThumb1 -24.326973 -0.000000 -32.862282
LeftShoulder -29.400490 -13.081199 60.863506
LeftArm 110.736893 -57.396635 -78.957539
LeftForeArm -16.095172 -0.000000 120.610915
LeftHand -11.869374 -0.000000 13.986313
LeftHandThumb1 -26.253704 0.000000 33.147579
Head 29.137253 6.337163 -9.048761
1230
root -2.781672 33.270254 0.352299 4.483719 -1.936828 2.811972
RightUpLeg 2.412814 -4.524227 -2.629486
RightLeg 1.637756 -0.000000 -0.000000
RightFoot -12.015132 -4.148965 3.769662
RightToeBase 5.453828 -0.000000 -0.000000
LeftUpLeg 2.522404 3.289801 0.495051
LeftLeg 2.420188 -0.000000 -0.000000
LeftFoot -10.700031 2.723129 -9.685236
LeftToeBase 8.329585 -0.000000 -0.000000
Spine -9.061949 -1.691379 -2.607216
RightShoulder -20.978145 11.756921 -58.436519
RightArm 41.014211 63.793320 39.180215
RightForeArm 77.854982 -0.000000 107.561980
RightHand 12.160326 -0.000000 -3.002740
RightHandThumb1 -24.326973 -0.000000 -32.862282
LeftShoulder -29.466084 -13.032883 60.867162
LeftArm 111.362521 -57.140615 -79.295630
LeftForeArm -16.060010 -0.000000 120.652941
LeftHand -11.764148 -0.000000 13.957640
LeftHandThumb1 -26.253704 0.000000 33.147579
Head 28.842024 6.586075 -9.213570
1231
root -2.777098 33.272117 0.347580 4.491775 -1.904150 2.819885
RightUpLeg 2.399282 -4.519949 -2.641340
RightLeg 1.643849 -0.000000 -0.000000
RightFoot -12.004284 -4.175152 3.768261
RightToeBase 5.434501 -0.000000 -0.000000
LeftUpLeg 2.509489 3.269271 0.479943
LeftLeg 2.400518 -0.000000 -0.000000
LeftFoot -10.668759 2.728615 -9.679347
LeftToeBase 8.334150 -0.000000 -0.000000
Spine -9.039655 -1.740831 -2.620494
RightShoulder -20.939114 11.570540 -58.303974
RightArm 40.523763 63.814919 38.978038
RightForeArm 77.915102 0.000000 108.033340
RightHand 12.072083 -0.000000 -3.748220
RightHandThumb1 -24.326973 -0.000000 -32.862282
LeftShoulder -29.515886 -13.019055 60.894813
LeftArm 111.862256 -56.929363 -79.541771
LeftForeArm -16.035357 0.000000 120.733832
LeftHand -11.616762 -0.000000 13.945840
LeftHandThumb1 -26.253704 0.000000 33.147579
Head 28.572187 6.877527 -9.318588
